# xmcd
#
# Track frame offsets:
#	150
#	17223
#	31071
#	46194
#	64092
#	84240
#	103413
#	118011
#	133509
#	151332
#	170505
#	189978
#
# Disc length: 2799 seconds
#
# Revision: 1
# Processed by: cddbd v1.5.2PL0 Copyright (c) Steve Scherf et al.
# Submitted via: audiograbber 1.83.01
#
DISCID=940aed0c
DTITLE=Dierks Bentley - Feel That Fire
DYEAR=2009
DGENRE=Country
TTITLE0=Life On The Run
TTITLE1=Sideways
TTITLE2=Feel That Fire
TTITLE3=I Wanna Make You Close Your Eyes
TTITLE4=Here She Comes
TTITLE5=I Can't Forget Her
TTITLE6=Beautiful World (Featuring Patty Griffin)
TTITLE7=Little Heartwrecker
TTITLE8=You Hold Me Together
TTITLE9=Better Believer
TTITLE10=Pray
TTITLE11=Last Call (Featuring Ronnie McCoury and Friends)
EXTD=
EXTT0=
EXTT1=
EXTT2=
EXTT3=
EXTT4=
EXTT5=
EXTT6=
EXTT7=
EXTT8=
EXTT9=
EXTT10=
EXTT11=
PLAYORDER=
